<mxfile host="app.diagrams.net" agent="Mozilla/5.0 (Macintosh; Intel Mac OS X 10_15_7) AppleWebKit/537.36 (KHTML, like Gecko) Chrome/135.0.0.0 Safari/537.36" version="26.2.14">
  <diagram name="Page-1" id="UZ0DBisCfOT1FpZLd8L1">
    <mxGraphModel dx="1212" dy="1080" grid="1" gridSize="10" guides="1" tooltips="1" connect="1" arrows="1" fold="1" page="1" pageScale="1" pageWidth="1100" pageHeight="850" math="0" shadow="0">
      <root>
        <mxCell id="0" />
        <mxCell id="1" parent="0" />
        <mxCell id="rV8Io17sKfJhON2tUnk4-9" value="" style="edgeStyle=orthogonalEdgeStyle;rounded=0;orthogonalLoop=1;jettySize=auto;html=1;" edge="1" parent="1" source="rV8Io17sKfJhON2tUnk4-3" target="rV8Io17sKfJhON2tUnk4-4">
          <mxGeometry relative="1" as="geometry" />
        </mxCell>
        <mxCell id="rV8Io17sKfJhON2tUnk4-3" value="SQL Server" style="rounded=1;whiteSpace=wrap;html=1;" vertex="1" parent="1">
          <mxGeometry x="30" y="220" width="120" height="60" as="geometry" />
        </mxCell>
        <mxCell id="rV8Io17sKfJhON2tUnk4-10" value="" style="edgeStyle=orthogonalEdgeStyle;rounded=0;orthogonalLoop=1;jettySize=auto;html=1;" edge="1" parent="1" source="rV8Io17sKfJhON2tUnk4-4" target="rV8Io17sKfJhON2tUnk4-5">
          <mxGeometry relative="1" as="geometry" />
        </mxCell>
        <mxCell id="rV8Io17sKfJhON2tUnk4-4" value="AWS DMS" style="rounded=1;whiteSpace=wrap;html=1;" vertex="1" parent="1">
          <mxGeometry x="200" y="220" width="120" height="60" as="geometry" />
        </mxCell>
        <mxCell id="rV8Io17sKfJhON2tUnk4-11" value="" style="edgeStyle=orthogonalEdgeStyle;rounded=0;orthogonalLoop=1;jettySize=auto;html=1;" edge="1" parent="1" source="rV8Io17sKfJhON2tUnk4-5" target="rV8Io17sKfJhON2tUnk4-6">
          <mxGeometry relative="1" as="geometry" />
        </mxCell>
        <mxCell id="rV8Io17sKfJhON2tUnk4-5" value="AWS S3" style="rounded=1;whiteSpace=wrap;html=1;" vertex="1" parent="1">
          <mxGeometry x="370" y="220" width="120" height="60" as="geometry" />
        </mxCell>
        <mxCell id="rV8Io17sKfJhON2tUnk4-12" value="" style="edgeStyle=orthogonalEdgeStyle;rounded=0;orthogonalLoop=1;jettySize=auto;html=1;" edge="1" parent="1" source="rV8Io17sKfJhON2tUnk4-6" target="rV8Io17sKfJhON2tUnk4-7">
          <mxGeometry relative="1" as="geometry" />
        </mxCell>
        <mxCell id="rV8Io17sKfJhON2tUnk4-6" value="DBT / Glue" style="rounded=1;whiteSpace=wrap;html=1;" vertex="1" parent="1">
          <mxGeometry x="540" y="220" width="120" height="60" as="geometry" />
        </mxCell>
        <mxCell id="rV8Io17sKfJhON2tUnk4-7" value="Snowflake / RedShift&lt;div&gt;&lt;br&gt;&lt;/div&gt;" style="rounded=1;whiteSpace=wrap;html=1;" vertex="1" parent="1">
          <mxGeometry x="710" y="220" width="120" height="60" as="geometry" />
        </mxCell>
        <mxCell id="rV8Io17sKfJhON2tUnk4-14" value="" style="edgeStyle=orthogonalEdgeStyle;rounded=0;orthogonalLoop=1;jettySize=auto;html=1;" edge="1" parent="1" source="rV8Io17sKfJhON2tUnk4-13" target="rV8Io17sKfJhON2tUnk4-5">
          <mxGeometry relative="1" as="geometry" />
        </mxCell>
        <mxCell id="rV8Io17sKfJhON2tUnk4-13" value="Ingest Data" style="shape=parallelogram;perimeter=parallelogramPerimeter;whiteSpace=wrap;html=1;fixedSize=1;" vertex="1" parent="1">
          <mxGeometry x="290" y="110" width="120" height="60" as="geometry" />
        </mxCell>
        <mxCell id="rV8Io17sKfJhON2tUnk4-16" value="" style="edgeStyle=orthogonalEdgeStyle;rounded=0;orthogonalLoop=1;jettySize=auto;html=1;" edge="1" parent="1" source="rV8Io17sKfJhON2tUnk4-15" target="rV8Io17sKfJhON2tUnk4-7">
          <mxGeometry relative="1" as="geometry" />
        </mxCell>
        <mxCell id="rV8Io17sKfJhON2tUnk4-15" value="Schedule this to run as per your requirements" style="shape=parallelogram;perimeter=parallelogramPerimeter;whiteSpace=wrap;html=1;fixedSize=1;" vertex="1" parent="1">
          <mxGeometry x="730" y="90" width="210" height="80" as="geometry" />
        </mxCell>
      </root>
    </mxGraphModel>
  </diagram>
</mxfile>
